Coordinates
version=1
nRows=10
nColumns=40
inDegrees=yes

Units are S.I. units (second, meters, Newtons, ...)
Angles are in degrees.

endheader
time	pelvis_tilt	pelvis_list	pelvis_rotation	pelvis_tx	pelvis_ty	pelvis_tz	hip_flexion_r	hip_adduction_r	hip_rotation_r	knee_angle_r	knee_angle_r_beta	ankle_angle_r	subtalar_angle_r	mtp_angle_r	hip_flexion_l	hip_adduction_l	hip_rotation_l	knee_angle_l	knee_angle_l_beta	ankle_angle_l	subtalar_angle_l	mtp_angle_l	lumbar_extension	lumbar_bending	lumbar_rotation	arm_flex_r	arm_add_r	arm_rot_r	elbow_flex_r	pro_sup_r	wrist_flex_r	wrist_dev_r	arm_flex_l	arm_add_l	arm_rot_l	elbow_flex_l	pro_sup_l	wrist_flex_l	wrist_dev_l
      0.00000000	     -2.55653413	     26.59324715	     75.98260958	      0.54011500	      1.00852113	     -1.01278145	    -16.91838459	    -12.95500976	     10.79304793	     59.21984303	      1.03358124	    -14.08942261	      0.00000000	      0.00000000	    -16.65056671	      7.60925846	    -16.29684415	     10.68617709	      0.18650897	      8.42458142	      0.00000000	      0.00000000	    -37.94400518	     -8.84184948	      5.99481509	      4.70805407	    -10.05173134	      0.33025211	    141.19430531	     85.67949074	      0.00000000	      0.00000000	     -0.40314922	     -7.69985244	     -4.39888345	    140.31067264	     79.53115222	      0.00000000	      0.00000000
      0.01000000	     -2.37425132	     26.37035251	     75.90893138	      0.53905272	      1.00990515	     -1.01234902	    -15.13011903	    -12.23669984	     11.21079777	     60.58964445	      1.05748879	    -12.49115881	      0.00000000	      0.00000000	    -17.45579310	      7.72440555	    -16.14312575	     10.01795585	      0.17484631	      8.57499220	      0.00000000	      0.00000000	    -37.77760456	     -8.60879250	      5.71767620	      4.79173298	     -9.83905314	      0.37112280	    141.10390722	     85.69098935	      0.00000000	      0.00000000	     -0.26655807	     -8.22400328	     -4.32787221	    140.40216838	     79.38435994	      0.00000000	      0.00000000
      0.02000000	     -2.10381900	     26.04146284	     75.80536443	      0.53786190	      1.01164909	     -1.01165140	    -12.92549963	    -11.30006436	     11.58959871	     61.88878664	      1.08016310	    -10.95699848	      0.00000000	      0.00000000	    -18.40242566	      7.79538619	    -15.93598009	      9.19571614	      0.16049552	      8.65101942	      0.00000000	      0.00000000	    -37.54787954	     -8.27448844	      5.42695807	      4.78768831	     -9.60667185	      0.45001964	    141.06366098	     85.67082081	      0.00000000	      0.00000000	     -0.05890052	     -8.84539191	     -4.22200782	    140.42426046	     79.22709645	      0.00000000	      0.00000000
      0.03000000	     -2.25953779	     25.63980761	     75.83316015	      0.53576135	      1.01248970	     -1.01117987	    -10.23499608	    -11.61380886	     11.45200741	     63.71906250	      1.11210744	      0.94508174	      0.00000000	      0.00000000	    -19.07414884	      8.32862934	    -15.55125586	      8.33178108	      0.14541701	      8.94330866	      0.00000000	      0.00000000	    -37.15182074	     -8.17747655	      5.02980350	      4.75905210	     -9.60693687	      0.46609049	    141.09210059	     85.49778528	      0.00000000	      0.00000000	      0.09292235	     -9.21099463	     -4.08674148	    140.38964505	     79.11240380	      0.00000000	      0.00000000
      0.04000000	     -2.51953997	     24.77317878	     75.64873654	      0.53492121	      1.01272330	     -1.01005344	     -7.20740615	    -11.18055425	     11.92424936	     64.76027558	      1.13028003	      1.30893890	      0.00000000	      0.00000000	    -19.14193008	      8.80254540	    -15.72594076	      7.65173662	      0.13354800	      9.00532025	      0.00000000	      0.00000000	    -36.29490035	     -8.33477019	      4.85994431	      4.67354958	     -9.42490468	      0.40453431	    141.02502406	     85.62182370	      0.00000000	      0.00000000	      0.30439352	     -9.75850760	     -3.93779422	    140.36467261	     78.96525744	      0.00000000	      0.00000000
      0.05000000	     -2.21116806	     24.42466974	     75.78296947	      0.53398163	      1.01431134	     -1.00925167	     -5.48019838	    -10.18706861	     11.77951848	     64.65074454	      1.12836836	      1.83472892	      0.00000000	      0.00000000	    -19.99247557	      8.69407359	    -15.45661526	      6.85097647	      0.11957210	      9.11118675	      0.00000000	      0.00000000	    -36.12726615	     -7.86838604	      4.42863319	      4.58295441	     -9.27885295	      0.36164475	    140.96883373	     85.52245460	      0.00000000	      0.00000000	      0.49662525	    -10.37326332	     -3.81146105	    140.40280017	     78.86801840	      0.00000000	      0.00000000
      0.06000000	     -1.88905137	     24.02251982	     75.87698058	      0.53310327	      1.01548667	     -1.00844451	     -3.77189869	     -9.22995557	     11.60330701	     64.31278887	      1.12246992	      2.08494410	      0.00000000	      0.00000000	    -20.81638254	      8.56908904	    -15.09624117	      5.97310265	      0.10425031	      9.29108203	      0.00000000	      0.00000000	    -35.89263666	     -7.39603223	      4.05706771	      4.49596545	     -9.19269131	      0.30792790	    140.93372462	     85.46120699	      0.00000000	      0.00000000	      0.71407491	    -10.92086275	     -3.68437886	    140.45858681	     78.75942806	      0.00000000	      0.00000000
      0.07000000	     -1.26454572	     23.88601766	     75.97769970	      0.53206840	      1.01710350	     -1.00789544	     -2.68491396	     -8.06797234	     11.25432600	     63.40736133	      1.10666723	      2.99377364	      0.00000000	      0.00000000	    -22.14514310	      8.23781205	    -14.58597528	      4.88148423	      0.08519797	      9.12272697	      0.00000000	      0.00000000	    -35.98668937	     -6.65312798	      3.74479302	      4.40633551	     -9.25972581	      0.16627153	    140.93706209	     85.76959350	      0.00000000	      0.00000000	      0.96252710	    -11.37532447	     -3.50257116	    140.52509522	     78.44174917	      0.00000000	      0.00000000
      0.08000000	     -0.99889419	     23.39713813	     76.15390571	      0.53105458	      1.01787643	     -1.00716224	     -1.03839664	     -7.23905040	     10.89642373	     62.45160823	      1.08998619	      4.22084874	      0.00000000	      0.00000000	    -22.84013734	      8.11956211	    -14.37137326	      4.06116789	      0.07088075	      9.29937596	      0.00000000	      0.00000000	    -35.68294490	     -6.17397679	      3.33886507	      4.33217331	     -9.26268779	      0.09929335	    140.88985001	     85.63070439	      0.00000000	      0.00000000	      1.16968053	    -11.82664427	     -3.38505340	    140.61648942	     78.25237467	      0.00000000	      0.00000000
      0.09000000	     -0.55611421	     23.20840406	     76.36968401	      0.53017433	      1.01903079	     -1.00650832	     -0.00730278	     -6.31911041	     10.42209817	     61.01141395	      1.06485005	      5.24863153	      0.00000000	      0.00000000	    -23.98547963	      7.86230098	    -13.97051363	      3.08733843	      0.05388422	      9.52469553	      0.00000000	      0.00000000	    -35.73540305	     -5.56106457	      2.94831179	      4.23327194	     -9.31366435	      0.04018191	    140.88846804	     85.87126454	      0.00000000	      0.00000000	      1.45494515	    -12.29589024	     -3.25596542	    140.73595244	     77.94003989	      0.00000000	      0.00000000
